<svg xmlns="http://www.w3.org/2000/svg" width="587.787" height="129.988" viewBox="0 0 587.787 129.988">
  <defs>
    <style>
      .cls-1 {
        fill: #c5a974;
        stroke: #8f6c3a;
        stroke-miterlimit: 22.926;
        stroke-width: 0.52px;
        fill-rule: evenodd;
      }
    </style>
  </defs>
  <g id="The_Mandalorian_logo" transform="translate(0.26 0.26)">
    <path id="svg_1" class="cls-1" d="M13.62,53.46V151.6H31.7V104.815h0l12.406,27.038,12.43-27.478h.008L56.538,151.6H74.62c.04-51.459.064-81.082.08-98.131h0L57.979,53.46h0L44.108,88.806,30.149,53.46H13.62Z" transform="translate(-13.028 -22.26)"/>
    <path id="svg_2" class="cls-1" d="M123.409,89.343l-10.517,62.208L93.73,151.6,112.6,53.5h21.619l18.866,98.1-19.162-.048Z" transform="translate(-29.016 -22.268)"/>
    <path id="svg_3" class="cls-1" d="M222.306,151.639H205.5c-1.121-3.042-4.57-12.463-15.256-41.638h0v41.59H172.16V53.46h14.015L204.3,97.987h0V53.508h18.089v98.131h-.088Z" transform="translate(-44.669 -22.26)"/>
    <path id="svg_4" class="cls-1" d="M733.968,151.579H717.159c-1.113-3.034-4.562-12.454-15.256-41.63h0v41.582H683.83V53.4h14.007l18.129,44.527h0V53.448h18.089v98.131h-.088Z" transform="translate(-146.79 -22.248)"/>
    <path id="svg_5" class="cls-1" d="M332.751,89.3l-10.509,62.208-19.162.056L321.946,53.46h21.619l18.866,98.107-19.162-.056Z" transform="translate(-70.799 -22.26)"/>
    <path id="svg_6" class="cls-1" d="M635.041,89.293,624.532,151.5l-19.162.056L624.236,53.45h21.619l18.866,98.107-19.162-.056Z" transform="translate(-131.13 -22.258)"/>
    <path id="svg_7" class="cls-1" d="M596.852,151.551l-19.082.024h0V53.42h19.082v98.131Z" transform="translate(-125.622 -22.252)"/>
    <path id="svg_8" class="cls-1" d="M278.439,151.591H241.3V53.46h37.139a11.645,11.645,0,0,1,11.638,11.646v74.847a11.638,11.638,0,0,1-11.638,11.638h0Zm-10.261-17.745h0a1.541,1.541,0,0,0,1.545-1.545h0V72.926a1.546,1.546,0,0,0-1.545-1.545h-8.284v62.465h8.284Z" transform="translate(-58.469 -22.26)"/>
    <path id="svg_9" class="cls-1" d="M479.9,53.468l-30.968-.008h0a8.824,8.824,0,0,0-8.821,8.829H440.1v80.482h.008a8.822,8.822,0,0,0,8.821,8.821H479.9a8.824,8.824,0,0,0,8.829-8.821h0V62.289h0a8.824,8.824,0,0,0-8.829-8.821Zm-11.318,80.378a1.541,1.541,0,0,0,1.545-1.545h0V72.926h0a1.546,1.546,0,0,0-1.545-1.545h-8.845a1.551,1.551,0,0,0-1.545,1.545v.008h0V132.3h0a1.546,1.546,0,0,0,1.545,1.545h8.845Z" transform="translate(-98.145 -22.26)"/>
    <path id="svg_10" class="cls-1" d="M400.559,133.846h22.972v17.745H382.47V53.46H400.56v80.386h0Z" transform="translate(-86.644 -22.26)"/>
    <path id="svg_11" class="cls-1" d="M538.692,93.061a1.551,1.551,0,0,0,1.545-1.545V72.842h0a1.551,1.551,0,0,0-1.545-1.545H526.9v80.21H508.3V53.384h0l41.013-.344h-.008a8.83,8.83,0,0,1,8.829,8.829v40.2a8.83,8.83,0,0,1-8.829,8.829h-2.017c8.26,23.748,12.23,35.154,14.135,40.637l.064-.032H540.237c-5.107-19.73-7.756-29.96-9.125-35.258h0V93.061h7.58Z" transform="translate(-111.757 -22.176)"/>
    <path id="svg_12" class="cls-1" d="M381.945,23.5v5.867h4.778V14.48h-4.778v6.147h-8.837V14.48H368.33V29.368h4.779V23.5h8.837Z" transform="translate(-83.821 -14.48)"/>
    <path id="svg_13" class="cls-1" d="M359.049,14.48v2.874l-6.716-.072V29.368h-4.779V17.354H340.84V14.48h18.21Z" transform="translate(-78.335 -14.48)"/>
    <path id="svg_14" class="cls-1" d="M404.8,23.5v3H415.86v2.865H400.02V14.48h15.84v2.8H404.8v3.346h8.645V23.5H404.8Z" transform="translate(-90.146 -14.48)"/>
    <path id="svg_15" class="cls-1" d="M12.88,32.988H273.7V28.21H12.88v4.778h0Z" transform="translate(-12.88 -17.22)"/>
    <path id="svg_16" class="cls-1" d="M683.468,33.108H430.36V28.33H683.468v4.778Z" transform="translate(-96.202 -17.244)"/>
  </g>
</svg>
