<svg xmlns="http://www.w3.org/2000/svg" width="26.537" height="25.383" viewBox="0 0 26.537 25.383">
  <g id="Inviter_symbol" data-name="Inviter symbol" transform="translate(0 0.5)">
    <circle id="Ellipse_94" data-name="Ellipse 94" cx="4.597" cy="4.597" r="4.597" transform="translate(5.162 3.147)" fill="#2cfffc"/>
    <path id="Path_646" data-name="Path 646" d="M6313.029,355.69c0-6.2,4.371-11.233,9.761-11.233s9.759,5.029,9.759,11.233" transform="translate(-6313.029 -330.807)" fill="#2cfffc"/>
    <path id="Union_4" data-name="Union 4" d="M3.482,7.718V4.99H.755a.754.754,0,1,1,0-1.508H3.482V.754a.754.754,0,0,1,1.509,0V3.482H7.718a.754.754,0,0,1,0,1.508H4.991V7.718a.754.754,0,0,1-1.509,0Z" transform="translate(17.566)" fill="#2cfffc" stroke="rgba(0,0,0,0)" stroke-miterlimit="10" stroke-width="1"/>
  </g>
</svg>
