<svg xmlns="http://www.w3.org/2000/svg" width="194.901" height="67.461" viewBox="0 0 194.901 67.461">
  <defs>
    <style>
      .cls-1 {
        fill: #171c25;
      }

      .cls-2 {
        fill: #d3381e;
      }

      .cls-3 {
        fill: #e59740;
      }

      .cls-4 {
        fill: #2cfffc;
      }

      .cls-5 {
        isolation: isolate;
      }
    </style>
  </defs>
  <g id="Logo" transform="translate(-727.5 -350.627)">
    <g id="Group_118" data-name="Group 118" transform="translate(727.5 350.627)">
      <path id="Path_51" data-name="Path 51" class="cls-1" d="M844.171,489.228l-8.755-5.481-6.1,4.646,6.976,9.509Z" transform="translate(-796.111 -440.337)"/>
      <path id="Path_52" data-name="Path 52" class="cls-2" d="M842.3,487.591l.346-.553-9.138-5.72-6.973,5.308,7.826,10.669,8.945-9.842-.661-.414-.346.553-.483-.439-7.347,8.084-6.125-8.349,5.235-3.985,8.373,5.242.346-.553-.483-.439Z" transform="translate(-794.241 -438.7)"/>
      <circle id="Ellipse_60" data-name="Ellipse 60" class="cls-1" cx="5.87" cy="5.87" r="5.87" transform="translate(38.48 47.569)"/>
      <path id="Path_53" data-name="Path 53" class="cls-2" d="M844.152,501.022H843.5a6.522,6.522,0,1,0,6.522-6.522,6.522,6.522,0,0,0-6.522,6.522h1.3a5.217,5.217,0,1,1,1.528,3.69,5.2,5.2,0,0,1-1.528-3.69Z" transform="translate(-805.672 -447.583)"/>
      <path id="Path_54" data-name="Path 54" class="cls-1" d="M736.122,489.228l8.755-5.481,6.1,4.646-6.975,9.509Z" transform="translate(-733.31 -440.337)"/>
      <path id="Path_55" data-name="Path 55" class="cls-2" d="M734.04,487.591l.346.553,8.373-5.242,5.235,3.985-6.125,8.349-7.347-8.084-.483.439.346.553-.346-.553-.483.439,8.42,9.265,7.827-10.669-6.973-5.308-9.8,6.134.525.577Z" transform="translate(-731.229 -438.7)"/>
      <circle id="Ellipse_61" data-name="Ellipse 61" class="cls-1" cx="5.87" cy="5.87" r="5.87" transform="translate(0.652 47.569)"/>
      <path id="Path_56" data-name="Path 56" class="cls-2" d="M739.892,501.022h-.652a5.217,5.217,0,1,1-1.528-3.689,5.2,5.2,0,0,1,1.528,3.689h1.3a6.522,6.522,0,1,0-6.522,6.522,6.522,6.522,0,0,0,6.522-6.522Z" transform="translate(-727.5 -447.583)"/>
      <rect id="Rectangle_71" data-name="Rectangle 71" class="cls-1" width="11.74" height="15.181" transform="translate(19.892 45.759)"/>
      <path id="Path_57" data-name="Path 57" class="cls-2" d="M787.152,504.78h.652V490.252H798.24v13.876H787.152v.652h0v.652h12.392V488.947H786.5v16.485h.652Z" transform="translate(-767.26 -443.841)"/>
      <circle id="Ellipse_62" data-name="Ellipse 62" class="cls-1" cx="5.87" cy="5.87" r="5.87" transform="translate(19.892 55.07)"/>
      <path id="Path_58" data-name="Path 58" class="cls-2" d="M798.892,524.022h-.652a5.217,5.217,0,1,1-1.528-3.69,5.2,5.2,0,0,1,1.528,3.69h1.3a6.522,6.522,0,1,0-6.522,6.522,6.522,6.522,0,0,0,6.522-6.522Z" transform="translate(-767.26 -463.083)"/>
      <path id="Path_59" data-name="Path 59" class="cls-1" d="M786.393,379.794s7.145,19.15-11.476,23.2a20.8,20.8,0,0,1-10.689-.38c-4.665-1.476-10.25-5.13-10.991-14.144a14.025,14.025,0,0,1,1.568-7.545,18.013,18.013,0,0,0,2.076-6.185,5.25,5.25,0,0,1,2.283,4.565s0-10.109,3.913-15.979c0,0,1.3,2.609,2.283,2.935,0,0,3.587-1.63,3.913-10.761,0,0,4.892,5.218,5.544,15.653,0,0,1.957,0,2.935-5.87,0,0,7.5,4.239,4.239,19.24Z" transform="translate(-744.815 -353.911)"/>
      <path id="Path_60" data-name="Path 60" class="cls-3" d="M785.045,376.511l-.611.228,0,.007a24.974,24.974,0,0,1,1.3,7.793,15.043,15.043,0,0,1-2.348,8.519,12.6,12.6,0,0,1-3.725,3.574,19.021,19.021,0,0,1-6.236,2.441,21.668,21.668,0,0,1-4.6.5,19.055,19.055,0,0,1-5.753-.868,14.4,14.4,0,0,1-10.537-13.575q-.041-.506-.041-1.012a13.548,13.548,0,0,1,1.539-6.181,26.174,26.174,0,0,0,1.344-3.047,13.531,13.531,0,0,0,.8-3.382l-.65-.054-.323.566.105-.184-.108.182,0,0,.105-.184-.108.182a3.89,3.89,0,0,1,1,.957,4.94,4.94,0,0,1,.957,3.044h1.3V376a43.432,43.432,0,0,1,.529-5.97,25.041,25.041,0,0,1,3.275-9.623l-.543-.362-.583.292c.007.013.34.68.81,1.408a8.841,8.841,0,0,0,.8,1.074,3.853,3.853,0,0,0,.471.453,1.917,1.917,0,0,0,.578.327l.243.081.233-.106a5.507,5.507,0,0,0,2.122-2.213c1.008-1.665,2.007-4.471,2.173-9.119l-.652-.023-.476.446h0a17.533,17.533,0,0,1,2.479,3.879,29.783,29.783,0,0,1,2.889,11.369l.038.611h.613a1.47,1.47,0,0,0,.594-.152,3.646,3.646,0,0,0,1.55-1.612,14.272,14.272,0,0,0,1.435-4.651L776.4,362l-.321.568.133-.235-.136.234h0l.133-.235-.136.234a8.135,8.135,0,0,1,2.369,2.479,16.264,16.264,0,0,1,2.363,9.151,32.579,32.579,0,0,1-.807,6.905l-.505,2.322,6.022-6.468-.477-.445-.611.228.611-.228-.477-.444-4.4,4.728.477.444.637.139a33.863,33.863,0,0,0,.836-7.182,17.476,17.476,0,0,0-2.641-9.963,9.177,9.177,0,0,0-2.751-2.8l-.811-.459-.153.919c-.476,2.868-1.189,4.228-1.692,4.826a1.66,1.66,0,0,1-.552.467.434.434,0,0,1-.094.034h0l.048.32v-.323a.339.339,0,0,0-.048,0l.048.32v.33l.651-.041a31.023,31.023,0,0,0-3.084-11.99,18.355,18.355,0,0,0-2.635-4.068l-1.072-1.143-.056,1.566c-.161,4.483-1.118,7.057-1.985,8.49a5.825,5.825,0,0,1-1.138,1.4,2.808,2.808,0,0,1-.332.251c-.036.023-.062.037-.075.044l-.011.005.136.274-.127-.278-.009,0,.136.274-.127-.278.27.594.206-.619a.7.7,0,0,1-.18-.112,3.622,3.622,0,0,1-.567-.613,11.7,11.7,0,0,1-.813-1.246c-.107-.187-.2-.348-.255-.461l-.069-.132-.017-.034,0-.009-.5-1.005-.623.935c-2.047,3.08-3.026,7.145-3.526,10.455a44.02,44.02,0,0,0-.5,5.885h1.3a6.236,6.236,0,0,0-1.279-3.906,5.018,5.018,0,0,0-1.333-1.226l-.888-.507-.085,1.02a12.266,12.266,0,0,1-.729,3.048,24.84,24.84,0,0,1-1.277,2.892,14.85,14.85,0,0,0-1.683,6.778q0,.558.046,1.118a15.7,15.7,0,0,0,11.444,14.712,20.354,20.354,0,0,0,6.147.929,22.988,22.988,0,0,0,4.878-.533,20.319,20.319,0,0,0,6.66-2.615,13.694,13.694,0,0,0,5.344-6.21,17.605,17.605,0,0,0,1.333-6.984,26.147,26.147,0,0,0-1.388-8.255l-.369-.989-.719.772Z" transform="translate(-743.467 -350.627)"/>
      <path id="Path_61" data-name="Path 61" class="cls-1" d="M785.544,395.5s-4.239.978-3.587,15c0,0,0,3.587-.978,3.913a8.347,8.347,0,0,1-2.609-4.892s-4.987,10.381,3.137,15.208a9.882,9.882,0,0,0,9.552.476c2.975-1.529,5.735-4.978,3.615-12.75a4.019,4.019,0,0,1-2.935,3.261,12.851,12.851,0,0,0-.652-11.74s-.326,3.913-3.261,5.544C787.827,409.522,785.218,408.544,785.544,395.5Z" transform="translate(-760.76 -380.867)"/>
      <path id="Path_62" data-name="Path 62" class="cls-4" d="M784.2,393.8l-.147-.636a2.333,2.333,0,0,0-.815.422,6.893,6.893,0,0,0-2.151,3.342,27.518,27.518,0,0,0-1.194,9.062c0,.884.022,1.829.069,2.84l.651-.03h-.652v.035a15.148,15.148,0,0,1-.14,1.881,5.276,5.276,0,0,1-.255,1.083,1.194,1.194,0,0,1-.144.28l-.03.033.072.091-.036-.109-.036.017.072.091-.036-.109.206.619.425-.5-.159.185.16-.184h0l-.159.185.16-.184a7.672,7.672,0,0,1-1.1-1.268,6.971,6.971,0,0,1-1.282-3.2l-.251-2.261-.985,2.05a16.355,16.355,0,0,0-.793,2.124,17.3,17.3,0,0,0-.786,4.951,10.947,10.947,0,0,0,1.023,4.791,9.81,9.81,0,0,0,3.948,4.186,11.092,11.092,0,0,0,5.645,1.58,9.9,9.9,0,0,0,4.539-1.085,8.413,8.413,0,0,0,3.272-2.9,9.781,9.781,0,0,0,1.446-5.439,19.721,19.721,0,0,0-.771-5.161l-.868-3.18-.409,3.271.4.05-.4-.053v0l.4.05-.4-.053,0,.022a3.756,3.756,0,0,1-.494,1.276,3.1,3.1,0,0,1-1.949,1.414l.158.633.583.292a13.768,13.768,0,0,0,1.2-5.672,12.7,12.7,0,0,0-1.878-6.7l-1.041-1.7-.166,1.989.143.012-.143-.013h0l.143.012-.143-.013a8.3,8.3,0,0,1-.509,2.036,6.865,6.865,0,0,1-.9,1.645,4.86,4.86,0,0,1-1.522,1.348l.317.57.229-.611-.152.4.2-.382-.052-.023-.152.4.2-.382h0a1.491,1.491,0,0,1-.351-.425,9.191,9.191,0,0,1-1.013-3.064,42.141,42.141,0,0,1-.576-7.766q0-1.021.028-2.163l.021-.841-.82.189.147.636-.652-.016q-.029,1.159-.029,2.2c0,5.534.578,8.559,1.195,10.261a5.451,5.451,0,0,0,.912,1.7,1.645,1.645,0,0,0,.627.493l.282.106.264-.146a6.172,6.172,0,0,0,1.954-1.735,9.339,9.339,0,0,0,1.64-4.325l-.65-.054-.557.34a11.387,11.387,0,0,1,1.687,6.019,13.083,13.083,0,0,1-.538,3.675c-.135.454-.269.815-.367,1.058-.05.122-.09.214-.117.274l-.031.066-.007.014v0l.2.1-.2-.1h0l.2.1-.2-.1-.634,1.268,1.375-.344a4.461,4.461,0,0,0,1.822-.919,4.725,4.725,0,0,0,1.32-1.875,4.506,4.506,0,0,0,.281-1.019l-.647-.081-.629.172a18.426,18.426,0,0,1,.725,4.818,8.479,8.479,0,0,1-1.236,4.73,7.109,7.109,0,0,1-2.773,2.45,8.6,8.6,0,0,1-3.943.94,9.791,9.791,0,0,1-4.978-1.4,8.5,8.5,0,0,1-3.44-3.632,9.653,9.653,0,0,1-.893-4.223,16.007,16.007,0,0,1,.729-4.57c.183-.6.366-1.091.5-1.428.068-.169.124-.3.163-.386l.044-.1.011-.023,0,0-.588-.282-.648.072a8.284,8.284,0,0,0,1.544,3.853,8.782,8.782,0,0,0,1.288,1.461l.28.24.35-.117a1.189,1.189,0,0,0,.38-.213,1.754,1.754,0,0,0,.432-.559,4.547,4.547,0,0,0,.371-1.152,13.025,13.025,0,0,0,.211-1.751c.03-.5.03-.849.03-.858v-.03q-.069-1.488-.068-2.779c0-5.605.908-8.546,1.744-10.032a4.158,4.158,0,0,1,1.078-1.328,1.608,1.608,0,0,1,.292-.179l.054-.022h0l-.114-.407.095.412.019,0-.114-.407.095.412-.147-.636-.652-.016Z" transform="translate(-759.412 -379.163)"/>
    </g>
    <g id="Group_119" data-name="Group 119" class="cls-5" transform="translate(789.948 375.123)">
      <path id="Path_63" data-name="Path 63" class="cls-3" d="M919,439.293c0-6.146,3.319-9.8,9.052-9.8a9.3,9.3,0,0,1,6.638,2.366,5.229,5.229,0,0,1,1.715,3.319,1.684,1.684,0,0,1-1.779,1.779,2.393,2.393,0,0,1-1.985-1.143c-1.207-1.811-2.525-2.636-4.352-2.636-3.192,0-4.987,2.287-4.987,6.289v2.461c0,4.161,1.763,6.432,4.987,6.432a5.012,5.012,0,0,0,4.431-2.6c.683-.842,1.159-1.127,1.889-1.127a1.68,1.68,0,0,1,1.81,1.763,5.229,5.229,0,0,1-2.08,3.6,9.408,9.408,0,0,1-6.289,2.049c-5.8,0-9.052-3.621-9.052-9.974Z" transform="translate(-919 -428.272)"/>
      <path id="Path_64" data-name="Path 64" class="cls-3" d="M985.916,462.08c-3.287,0-5.511-2.064-5.511-5.129,0-3.113,2.3-5.034,6.13-5.034h4v-1.382c0-1.7-1.064-2.589-2.986-2.589a4.377,4.377,0,0,0-3.113,1.318,2.324,2.324,0,0,1-1.6.556,1.4,1.4,0,0,1-1.493-1.477c0-.984.683-1.985,2.16-2.731a9.286,9.286,0,0,1,4.32-.873c4.415,0,6.892,2.1,6.892,5.828v9.211c0,1.429-.731,2.239-2.033,2.239a1.82,1.82,0,0,1-1.969-1.715v-.588h-.206A5.035,5.035,0,0,1,985.916,462.08Zm1.4-3.017a3.009,3.009,0,0,0,3.224-2.827v-1.747H987.3c-1.715,0-2.731.826-2.731,2.207A2.453,2.453,0,0,0,987.313,459.063Z" transform="translate(-960.381 -438.544)"/>
      <path id="Path_65" data-name="Path 65" class="cls-3" d="M1058.4,462.016c-1.334,0-2.08-.81-2.08-2.3v-8.369c0-2-1.08-3.145-2.891-3.145-1.795,0-3.017,1.35-3.017,3.383v8.131c0,1.493-.715,2.3-2.033,2.3-1.3,0-2.016-.81-2.016-2.3v-8.29c0-2-1.128-3.224-2.938-3.224-1.779,0-2.97,1.318-2.97,3.367v8.147c0,1.493-.762,2.3-2.1,2.3s-2.1-.81-2.1-2.3V447.1a2.007,2.007,0,0,1,2.065-2.255,1.986,1.986,0,0,1,2.033,2.16v.794h.207a4.983,4.983,0,0,1,9.243.111H1050a5.13,5.13,0,0,1,5.066-3.176c3.4,0,5.431,2.017,5.431,5.352v9.624C1060.493,461.207,1059.73,462.016,1058.4,462.016Z" transform="translate(-998.02 -438.544)"/>
      <path id="Path_66" data-name="Path 66" class="cls-3" d="M1125.212,467.845c-1.334,0-2.08-.826-2.08-2.3V447.167c0-1.493.73-2.318,2.049-2.318a1.928,1.928,0,0,1,2.064,2.017v.809h.206a4.946,4.946,0,0,1,4.907-2.937c3.923,0,6.273,2.811,6.273,7.5v2.335c0,4.685-2.382,7.512-6.336,7.512a4.825,4.825,0,0,1-4.78-2.795h-.207v6.257C1127.308,467.019,1126.562,467.845,1125.212,467.845Zm5.67-9.116c2.207,0,3.478-1.667,3.478-4.558v-1.525c0-2.906-1.271-4.558-3.509-4.558-2.192,0-3.542,1.6-3.542,4.3v2.239C1127.308,457.109,1128.738,458.729,1130.882,458.729Z" transform="translate(-1056.564 -438.544)"/>
      <path id="Path_67" data-name="Path 67" class="cls-3" d="M1181.378,449.282c-1.334,0-2.1-.826-2.1-2.3V435.561h-.953c-1.128,0-1.779-.588-1.779-1.62a1.562,1.562,0,0,1,1.779-1.636h.953v-1.334c0-3.573,1.747-5.13,5.241-5.13a4.5,4.5,0,0,1,2.366.524,1.557,1.557,0,0,1,.762,1.318,1.193,1.193,0,0,1-1.239,1.3c-.556,0-.794-.08-1.4-.08-1.064,0-1.636.556-1.636,1.906v1.493h1.842a1.568,1.568,0,0,1,1.795,1.636c0,1.016-.651,1.62-1.795,1.62h-1.762V446.98C1183.458,448.456,1182.712,449.282,1181.378,449.282Z" transform="translate(-1092.563 -425.81)"/>
      <path id="Path_68" data-name="Path 68" class="cls-3" d="M1219.77,425.745a2.205,2.205,0,1,1-2.366,2.191A2.216,2.216,0,0,1,1219.77,425.745Zm0,23.472c-1.286,0-2.08-.794-2.08-2.3V434.368c0-1.525.794-2.318,2.1-2.318,1.286,0,2.08.794,2.08,2.318v12.546C1221.867,448.439,1221.073,449.217,1219.77,449.217Z" transform="translate(-1120.094 -425.745)"/>
      <path id="Path_69" data-name="Path 69" class="cls-3" d="M1246.382,462.016c-1.35,0-2.049-.842-2.049-2.3V447.167c0-1.477.746-2.318,2.065-2.318a1.9,1.9,0,0,1,2.017,2.033v.4h.175a3.7,3.7,0,0,1,3.51-2.541,2.248,2.248,0,0,1,1.477.46,1.7,1.7,0,0,1,.6,1.4,1.558,1.558,0,0,1-.6,1.366,2.611,2.611,0,0,1-1.524.4c-2.351.048-3.541,1.334-3.541,3.891v7.464A2.016,2.016,0,0,1,1246.382,462.016Z" transform="translate(-1138.242 -438.544)"/>
      <path id="Path_70" data-name="Path 70" class="cls-3" d="M1279.492,452.164c0-4.606,3.049-7.718,7.575-7.718a7.011,7.011,0,0,1,7.321,7.21c0,1.89-.54,2.509-2.112,2.509h-8.528v.73a3.658,3.658,0,0,0,4,3.859,4.379,4.379,0,0,0,2.969-.937c.81-.619,1.1-.857,1.747-.857a1.422,1.422,0,0,1,1.477,1.525,2.608,2.608,0,0,1-1.254,2.033,8.336,8.336,0,0,1-5.209,1.509c-4.939,0-7.988-2.906-7.988-7.686Zm10.894-.652v-.032c0-2.3-1.271-3.8-3.255-3.8-2.064,0-3.383,1.524-3.383,3.8v.032Z" transform="translate(-1161.935 -438.348)"/>
    </g>
  </g>
</svg>
