<svg xmlns="http://www.w3.org/2000/svg" width="101.039" height="72" viewBox="0 0 101.039 72">
  <defs>
    <style>
      .cls-1 {
        fill: #fff;
      }
    </style>
  </defs>
  <path id="path827" class="cls-1" d="M25.309,136.821a7.468,7.468,0,0,1-3.07-1.785,8.887,8.887,0,0,1-2.326-3.633,10.545,10.545,0,0,1,0-5.677,7.873,7.873,0,0,1,1.955-3.278,8.189,8.189,0,0,1,5.691-2.6A8.744,8.744,0,0,1,34.1,134.759a7.513,7.513,0,0,1-6.124,2.4A7.361,7.361,0,0,1,25.309,136.821Zm4.441-1.557a6.642,6.642,0,0,0,4.7-4.806,9.352,9.352,0,0,0,0-3.8,6.714,6.714,0,0,0-5.44-5.011c-4.4-.726-8.186,3.3-7.469,7.946a6.921,6.921,0,0,0,4.969,5.716,8.706,8.706,0,0,0,3.237-.039Zm61.566,1.685a8.543,8.543,0,0,1-4.9-3.774,9.348,9.348,0,0,1-.339-8.6,8.514,8.514,0,0,1,4.979-4.38,11.548,11.548,0,0,1,5.6,0,10.772,10.772,0,0,1,3.386,2.021c.272.3.271.3-.371.947l-.645.645-1.088-.781A6.747,6.747,0,0,0,92.49,121.7a6.12,6.12,0,0,0-3.343,1.806,7.307,7.307,0,0,0-.131,9.854,7.653,7.653,0,0,0,1.381,1.191,6.878,6.878,0,0,0,8.195-1.061l.534-.514.64.628.64.628-.533.545a9.6,9.6,0,0,1-3.1,1.974,13.676,13.676,0,0,1-5.455.193Zm-90.573-.02c-.052-.052-.095-3.865-.095-8.474v-8.379l.953.042.953.042,5.2,6.644c2.861,3.654,5.25,6.648,5.308,6.653s.107-3,.107-6.68v-6.688h1.852l-.037,8.432-.037,8.432-.733.043-.733.043-5.457-6.927-5.457-6.927-.037,6.92-.037,6.92H1.666A2.79,2.79,0,0,1,.743,136.929Zm40.463-8.372v-8.467l4.163,0c4.408,0,5.32.1,6.521.715a4.8,4.8,0,0,1,2.559,5.278,4.512,4.512,0,0,1-3.388,3.686l-1.042.368,2.567,3.389c1.412,1.864,2.567,3.413,2.567,3.443a6.4,6.4,0,0,1-1.174.05l-1.174,0-2.48-3.344-2.48-3.344-2.358.039-2.358.039-.038,3.309-.038,3.309H41.206Zm9.464-.378a3.23,3.23,0,0,0-.378-6.044c-.651-.225-1.219-.263-3.962-.265l-3.2,0-.038,3.389-.038,3.389L46.5,128.6c3.425-.044,3.46-.048,4.165-.423Zm8.467.4v-8.485h3.4c4.061,0,5.082.151,6.843,1.015a8.337,8.337,0,0,1-.232,14.96c-1.686.756-2.278.843-6.278.922l-3.736.074Zm8.519,6.178a6.651,6.651,0,0,0,.55-12.18c-1.286-.61-2.64-.8-5.227-.747l-1.921.042-.037,6.666-.037,6.666,2.883-.06C66.427,135.086,66.852,135.043,67.656,134.752Zm10.977-6.2v-8.467h1.85v16.935h-1.85ZM.505,113.258v-.427H100.691v.854H.505Zm77.771-6.642c-.235-.029-1.06-.185-1.833-.345a19.072,19.072,0,0,1-9.993-5.458,19.407,19.407,0,0,1-3.5-4.39l-.669-1.109L62.192,96a12.38,12.38,0,0,1-10.107,10.357c-1.024.179-2.852.216-10.471.216H32.383V65.717l10.282.042,10.282.042,1,.331A12.563,12.563,0,0,1,61.6,73.653a10.037,10.037,0,0,1,.455,1.779c.143,1.218.182,1.221.85.049a21.275,21.275,0,0,1,6.417-6.907,19.033,19.033,0,0,1,11.513-3.415,18.463,18.463,0,0,1,6.635,1A20.166,20.166,0,0,1,100.548,79.23a18.4,18.4,0,0,1,1,6.562,18.4,18.4,0,0,1-1,6.562,19.71,19.71,0,0,1-5.114,8.243,19.92,19.92,0,0,1-14.827,6.093C79.56,106.679,78.512,106.645,78.277,106.616ZM49.512,96.839c2.444-1.021,2.593-5.145.23-6.351-.5-.257-.841-.283-3.692-.283H42.913v6.831h3.064a13.812,13.812,0,0,0,3.534-.2Zm33.575-.883a12.741,12.741,0,0,0,4.368-2.113,11.106,11.106,0,0,0,3.517-5.489,13.612,13.612,0,0,0,.056-4.838A10.7,10.7,0,0,0,84.1,75.97,10.354,10.354,0,0,0,76.325,95.1a10.608,10.608,0,0,0,6.762.854Zm-3.426-2.067a8.226,8.226,0,0,1-6.652-5.962,10.816,10.816,0,0,1,.006-4.19,8.358,8.358,0,0,1,5.271-5.66,9.957,9.957,0,0,1,5.212,0A8.289,8.289,0,0,1,87.929,81.7a6.677,6.677,0,0,1,1.013,4.239,5.875,5.875,0,0,1-.384,2.736,8.208,8.208,0,0,1-8.9,5.217ZM60.078,86.1V83.569l-.933.709a12.694,12.694,0,0,1-1.918,1.167c-.969.451-.978.459-.543.555a8.962,8.962,0,0,1,2.9,2.063c.261.314.478.573.483.574s.008-1.138.008-2.533ZM49.557,81.514a3.125,3.125,0,0,0,1.556-1.627,3.756,3.756,0,0,0-1.066-4.551l-.61-.429-3.19-.043-3.19-.043v6.846h3.05A22.222,22.222,0,0,0,49.557,81.514ZM.505,86.148V65.727H11.89V80.954h7.115V65.727h11.1V106.57h-11.1v-15.8H11.89v15.8H.505ZM98.323,69.887a1.5,1.5,0,0,1,.944-2.729,1.3,1.3,0,0,1,1.323.7,1.572,1.572,0,0,1-.462,2.1A2.084,2.084,0,0,1,98.323,69.887Zm1.724-.115A1.373,1.373,0,0,0,100.5,68.1a1.174,1.174,0,0,0-1.259-.806,1.263,1.263,0,0,0-1.247.845A1.378,1.378,0,0,0,100.048,69.771Zm-1.35-1.2c0-.822.014-.854.365-.854.764,0,1.177.536.745.968-.133.133-.133.209,0,.342.222.222.218.4-.008.4a.575.575,0,0,1-.357-.285c-.1-.157-.241-.285-.319-.285s-.141.128-.141.285-.064.285-.142.285-.142-.379-.142-.854Zm.9-.094c.128-.128-.178-.476-.419-.476-.108,0-.2.128-.2.285,0,.277.4.4.615.191Z" transform="translate(-0.505 -65.158)"/>
</svg>
