<?xml version="1.0" encoding="utf-8"?>
<!-- Generator: Adobe Illustrator 25.2.1, SVG Export Plug-In . SVG Version: 6.00 Build 0)  -->
<svg version="1.1"
	 id="svg2989" inkscape:version="0.48.3.1 r9886" sodipodi:docname="lock_font_awesome.svg" xmlns:cc="http://creativecommons.org/ns#" xmlns:dc="http://purl.org/dc/elements/1.1/" xmlns:inkscape="http://www.inkscape.org/namespaces/inkscape" xmlns:rdf="http://www.w3.org/1999/02/22-rdf-syntax-ns#" xmlns:sodipodi="http://sodipodi.sourceforge.net/DTD/sodipodi-0.dtd" xmlns:svg="http://www.w3.org/2000/svg"
	 xmlns="http://www.w3.org/2000/svg" xmlns:xlink="http://www.w3.org/1999/xlink" x="0px" y="0px" viewBox="0 0 48.9 48.7"
	 style="enable-background:new 0 0 48.9 48.7;" xml:space="preserve">
<style type="text/css">
	.st0{fill:#111820;stroke:#FFFFFF;stroke-width:4;stroke-miterlimit:10;}
	.st1{fill:#FFFFFF;}
</style>
<sodipodi:namedview  bordercolor="#666666" borderopacity="1" gridtolerance="10" guidetolerance="10" id="namedview2995" inkscape:current-layer="svg2989" inkscape:cx="896" inkscape:cy="896" inkscape:pageopacity="0" inkscape:pageshadow="2" inkscape:window-height="480" inkscape:window-maximized="0" inkscape:window-width="640" inkscape:window-x="0" inkscape:window-y="25" inkscape:zoom="0.13169643" objecttolerance="10" pagecolor="#ffffff" showgrid="false">
	</sodipodi:namedview>
<circle class="st0" cx="24.5" cy="24.4" r="22.1"/>
<path id="path2993" inkscape:connector-curvature="0" class="st1" d="M27.2,27.7c0-0.7-0.3-1.4-0.8-1.9S25.2,25,24.5,25
	c-0.7,0-1.4,0.3-1.9,0.8s-0.8,1.2-0.8,1.9c0,0.5,0.1,1,0.4,1.4s0.6,0.8,1.1,1L21.8,35c-0.1,0.2,0,0.4,0.1,0.6
	c0.1,0.2,0.3,0.3,0.5,0.3h4.1c0.2,0,0.4-0.1,0.5-0.3s0.2-0.4,0.1-0.6l-1.5-4.8c0.5-0.2,0.8-0.6,1.1-1S27.2,28.2,27.2,27.7z
	 M19.1,22.3h10.8v-4.1c0-1.5-0.5-2.8-1.6-3.8c-1.1-1.1-2.3-1.6-3.8-1.6c-1.5,0-2.8,0.5-3.8,1.6s-1.6,2.3-1.6,3.8V22.3z M36.7,24.3
	v12.2c0,0.6-0.2,1-0.6,1.4s-0.9,0.6-1.4,0.6H14.3c-0.6,0-1-0.2-1.4-0.6s-0.6-0.9-0.6-1.4V24.3c0-0.6,0.2-1,0.6-1.4s0.9-0.6,1.4-0.6
	H15v-4.1c0-2.6,0.9-4.8,2.8-6.7c1.9-1.9,4.1-2.8,6.7-2.8s4.8,0.9,6.7,2.8c1.9,1.9,2.8,4.1,2.8,6.7v4.1h0.7c0.6,0,1,0.2,1.4,0.6
	S36.7,23.8,36.7,24.3z"/>
</svg>
