<svg xmlns="http://www.w3.org/2000/svg" width="28.515" height="39.671" viewBox="0 0 28.515 39.671">
  <defs>
    <style>
      .cls-1 {
        fill: #fff;
      }
    </style>
  </defs>
  <g id="Mic_icon" data-name="Mic icon" transform="translate(532.5)">
    <path id="Path_73" data-name="Path 73" class="cls-1" d="M-432.739,26.624a7.261,7.261,0,0,0,7.261-7.261V7.261A7.261,7.261,0,0,0-432.739,0,7.261,7.261,0,0,0-440,7.261v12.1A7.261,7.261,0,0,0-432.739,26.624Zm-5.37-19.363a5.376,5.376,0,0,1,5.37-5.37,5.376,5.376,0,0,1,5.37,5.37v12.1a5.376,5.376,0,0,1-5.37,5.37,5.376,5.376,0,0,1-5.37-5.37Z" transform="translate(-85.504)"/>
    <path id="Path_74" data-name="Path 74" class="cls-1" d="M-504.155,180.816a2.159,2.159,0,0,0-.78-.948,2.152,2.152,0,0,0-1.206-.369h-1.21a2.153,2.153,0,0,0-.839.17,2.159,2.159,0,0,0-.948.78,2.152,2.152,0,0,0-.369,1.206v3.631a8.683,8.683,0,0,1-.687,3.4,8.8,8.8,0,0,1-3.169,3.847,8.68,8.68,0,0,1-4.88,1.494q-.432,0-.875-.043a8.187,8.187,0,0,1-3.124-.959,8.97,8.97,0,0,1-3.435-3.367,9.522,9.522,0,0,1-1.3-4.8v-3.2a2.152,2.152,0,0,0-.17-.839,2.159,2.159,0,0,0-.78-.948,2.152,2.152,0,0,0-1.206-.369h-1.21a2.153,2.153,0,0,0-.839.17,2.16,2.16,0,0,0-.948.78,2.152,2.152,0,0,0-.369,1.206v3.038a15.229,15.229,0,0,0,.917,5.2,15.008,15.008,0,0,0,4.349,6.3A13.779,13.779,0,0,0-521,199.234v.839h-3.29a2.151,2.151,0,0,0-.839.17,2.158,2.158,0,0,0-.948.78,2.152,2.152,0,0,0-.369,1.206v1.21a2.153,2.153,0,0,0,.17.839,2.16,2.16,0,0,0,.78.948,2.152,2.152,0,0,0,1.206.369h12.1a2.151,2.151,0,0,0,.839-.17,2.159,2.159,0,0,0,.948-.78,2.152,2.152,0,0,0,.369-1.206v-1.21a2.152,2.152,0,0,0-.17-.839,2.159,2.159,0,0,0-.78-.948,2.152,2.152,0,0,0-1.206-.369h-3.29v-.809a14.185,14.185,0,0,0,4.038-1.458,14.351,14.351,0,0,0,5.393-5.138,14.158,14.158,0,0,0,2.066-7.382v-3.631A2.155,2.155,0,0,0-504.155,180.816Zm-1.721,4.47a12.282,12.282,0,0,1-.821,4.43,12.414,12.414,0,0,1-3.834,5.221,12.326,12.326,0,0,1-6.025,2.589l-.817.112v4.324h5.181a.261.261,0,0,1,.1.02.269.269,0,0,1,.117.1.258.258,0,0,1,.045.148v1.21a.262.262,0,0,1-.02.1.27.27,0,0,1-.1.117.259.259,0,0,1-.148.045h-12.1a.261.261,0,0,1-.1-.02.268.268,0,0,1-.117-.1.258.258,0,0,1-.045-.148v-1.21a.26.26,0,0,1,.02-.1.27.27,0,0,1,.1-.117.259.259,0,0,1,.148-.045h5.181v-4.352l-.816-.113a11.707,11.707,0,0,1-4.262-1.464,12.726,12.726,0,0,1-4.661-4.725,13.356,13.356,0,0,1-1.758-6.617v-3.038a.263.263,0,0,1,.021-.1.269.269,0,0,1,.1-.117.258.258,0,0,1,.147-.045h1.21a.261.261,0,0,1,.1.02.269.269,0,0,1,.117.1.259.259,0,0,1,.045.148v3.2a11.394,11.394,0,0,0,.713,3.965,11.194,11.194,0,0,0,3.38,4.765,10.368,10.368,0,0,0,2.526,1.529,10.063,10.063,0,0,0,2.948.748q.534.052,1.059.052a10.575,10.575,0,0,0,4.134-.837,10.685,10.685,0,0,0,4.675-3.851,10.574,10.574,0,0,0,1.818-5.939v-3.631a.26.26,0,0,1,.02-.1.269.269,0,0,1,.1-.117.258.258,0,0,1,.148-.045h1.21a.261.261,0,0,1,.1.02.27.27,0,0,1,.117.1.258.258,0,0,1,.045.148Z" transform="translate(0 -165.923)"/>
  </g>
</svg>
