<svg id="notification_bell" data-name="notification bell" xmlns="http://www.w3.org/2000/svg" width="33.783" height="39.804" viewBox="0 0 33.783 39.804">
  <defs>
    <style>
      .cls-1 {
        fill: #fff;
      }
    </style>
  </defs>
  <path id="Path_6" data-name="Path 6" class="cls-1" d="M64.895,32.536c-4.006-1.91-4.158-10.11-4.161-10.317v-5.5A12.83,12.83,0,0,0,53.317,4.933a4.694,4.694,0,1,0-9.376,0,12.83,12.83,0,0,0-7.417,11.785v5.5c0,.207-.155,8.406-4.161,10.317a1.14,1.14,0,0,0-.6,1.259,1.078,1.078,0,0,0,1.039.886H42.955a6.44,6.44,0,0,0,1.578,3.246,5.408,5.408,0,0,0,8.192,0A6.438,6.438,0,0,0,54.3,34.682H64.457A1.078,1.078,0,0,0,65.5,33.8,1.139,1.139,0,0,0,64.895,32.536Zm-5.277-3.928a12.717,12.717,0,0,0,1.863,3.829h-25.7a12.716,12.716,0,0,0,1.863-3.829ZM48.629,2.245A2.591,2.591,0,0,1,51.091,4.2a11.526,11.526,0,0,0-4.924,0A2.592,2.592,0,0,1,48.629,2.245ZM38.65,22.226V16.718c0-5.811,4.477-10.538,9.979-10.538s9.979,4.727,9.979,10.538v5.517a24.693,24.693,0,0,0,.45,4.128H38.2A24.71,24.71,0,0,0,38.65,22.226Zm9.979,15.333a3.771,3.771,0,0,1-3.493-2.878h6.985A3.771,3.771,0,0,1,48.629,37.559Z" transform="translate(-31.737)"/>
  <path id="Path_7" data-name="Path 7" class="cls-1" d="M178.716,119.235a7.38,7.38,0,0,0-7.372,7.372.945.945,0,1,0,1.89,0,5.488,5.488,0,0,1,5.482-5.482.945.945,0,1,0,0-1.89Z" transform="translate(-162.38 -111.075)"/>
</svg>
