<?xml version="1.0" encoding="utf-8"?>
<!-- Generator: Adobe Illustrator 25.2.1, SVG Export Plug-In . SVG Version: 6.00 Build 0)  -->
<svg version="1.1"
	 id="svg4" focusable="false" inkscape:version="0.92.3 (2405546, 2018-03-11)" sodipodi:docname="NRK TV logo.svg" xmlns:cc="http://creativecommons.org/ns#" xmlns:dc="http://purl.org/dc/elements/1.1/" xmlns:inkscape="http://www.inkscape.org/namespaces/inkscape" xmlns:rdf="http://www.w3.org/1999/02/22-rdf-syntax-ns#" xmlns:sodipodi="http://sodipodi.sourceforge.net/DTD/sodipodi-0.dtd" xmlns:svg="http://www.w3.org/2000/svg"
	 xmlns="http://www.w3.org/2000/svg" xmlns:xlink="http://www.w3.org/1999/xlink" x="0px" y="0px" viewBox="0 0 1000 214.6"
	 style="enable-background:new 0 0 1000 214.6;" xml:space="preserve">
<style type="text/css">
	.st0{fill:#FFFFFF;}
</style>
<sodipodi:namedview  bordercolor="#666666" borderopacity="1" fit-margin-bottom="0" fit-margin-left="0" fit-margin-right="0" fit-margin-top="0" gridtolerance="10" guidetolerance="10" id="namedview6" inkscape:current-layer="svg4" inkscape:cx="428.54053" inkscape:cy="114.0624" inkscape:pageopacity="0" inkscape:pageshadow="2" inkscape:window-height="1149" inkscape:window-maximized="0" inkscape:window-width="2304" inkscape:window-x="0" inkscape:window-y="0" inkscape:zoom="1.4142136" objecttolerance="10" pagecolor="#ffffff" showgrid="false">
	</sodipodi:namedview>
<path id="path2" inkscape:connector-curvature="0" class="st0" d="M666.6,4.1v24.6H732v185.9h27.1V28.7h65.4V4.1 M972.7,4.1
	L916,183.9L860.5,4.1h-28.1l67.4,210.5h31.9L1000,4.1 M545.4,119.1c-4.4-7.5-4.7-12.1-0.4-19.3L603.4,4h-81.2
	c0,0-48.8,79.7-55.4,90.7c-6.6,11.1-6.3,17.9,0.3,29.3c6.7,11.3,55.2,90.5,55.2,90.5h81.2C603.4,214.5,546,120.3,545.4,119.1
	 M378.8,214.5h73.8V4h-73.8 M332.3,0c-23.1,0-41.8,18.9-41.8,42.2c0,23.3,18.7,42.2,41.8,42.2c23.1,0,41.9-18.9,41.9-42.2
	C374.2,18.9,355.4,0,332.3,0 M211.6,214.5h73.8V4h-73.8 M0,214.5h73.6V4H0 M166.8,37.9C163,18.6,146.2,4,125.9,4H78.5l47.7,210.5
	h80.2L166.8,37.9z"/>
</svg>
