<?xml version="1.0" encoding="utf-8"?>
<!-- Generator: Adobe Illustrator 25.2.1, SVG Export Plug-In . SVG Version: 6.00 Build 0)  -->
<svg version="1.1" id="Layer_1" xmlns="http://www.w3.org/2000/svg" xmlns:xlink="http://www.w3.org/1999/xlink" x="0px" y="0px"
	 viewBox="0 0 49.055 49.055" style="enable-background:new 0 0 49.055 49.055;" xml:space="preserve">
<style type="text/css">
	.st0{fill:#111820;stroke:#FFFFFF;stroke-width:4;stroke-miterlimit:10;}
	.st1{fill:#FFFFFF;}
</style>
<g id="Kryss" transform="translate(-2513.705 -1208.724)">
	<g id="Ellipse_96" transform="translate(2513.705 1208.724)">
		<circle class="st0" cx="24.527" cy="24.527" r="22.145"/>
	</g>
</g>
<g id="HYx7QI.tif">
	<g>
		<path class="st1" d="M24.528,18.334c3.601,0,7.203,0.009,10.804-0.009c0.603-0.003,0.845,0.382,0.782,0.895
			c-0.206,1.673-0.377,3.351-0.562,5.027c-0.202,1.832-0.405,3.664-0.606,5.497c-0.183,1.659-0.365,3.317-0.546,4.976
			c-0.164,1.494-0.323,2.988-0.492,4.481c-0.058,0.509-0.284,0.697-0.801,0.697c-5.717,0-11.434,0-17.15,0
			c-0.512,0-0.736-0.19-0.793-0.706c-0.203-1.823-0.398-3.648-0.599-5.471c-0.219-1.989-0.442-3.977-0.661-5.965
			c-0.219-1.989-0.433-3.978-0.651-5.966c-0.095-0.868-0.19-1.737-0.293-2.604c-0.067-0.561,0.177-0.85,0.738-0.85
			C17.308,18.334,20.918,18.334,24.528,18.334z M31.067,29.097c0-2.045,0-4.09,0-6.134c0-0.122,0-0.245-0.012-0.366
			c-0.055-0.527-0.56-0.887-1.072-0.769c-0.474,0.109-0.723,0.444-0.723,0.982c-0.001,3.74,0,7.48,0,11.22
			c0,0.481-0.001,0.961,0.001,1.442c0.002,0.403,0.206,0.682,0.562,0.839c0.368,0.162,0.705,0.066,0.989-0.201
			c0.228-0.214,0.257-0.502,0.257-0.798C31.066,33.239,31.067,31.168,31.067,29.097z M19.772,29.09c0-1.757,0-3.513,0-5.27
			c0-0.393,0.01-0.787-0.007-1.18c-0.023-0.546-0.557-0.938-1.085-0.813c-0.493,0.117-0.725,0.453-0.725,1.065
			c-0.001,4.134-0.001,8.268,0.001,12.402c0,0.113,0.006,0.228,0.025,0.339c0.069,0.416,0.437,0.734,0.857,0.747
			c0.534,0.016,0.932-0.392,0.933-0.971C19.773,33.303,19.772,31.196,19.772,29.09z M25.437,29.072c0-1.791,0-3.583,0-5.374
			c0-0.358,0.009-0.717-0.007-1.075c-0.024-0.519-0.542-0.909-1.047-0.804c-0.498,0.104-0.745,0.436-0.745,1.014
			c-0.001,3.749,0,7.498,0,11.247c0,0.481-0.006,0.961,0.005,1.442c0.011,0.468,0.39,0.839,0.856,0.858
			c0.544,0.022,0.936-0.373,0.937-0.963C25.439,33.302,25.437,31.187,25.437,29.072z"/>
		<path class="st1" d="M24.504,16.298c-3.89,0-7.779,0.001-11.669-0.001c-0.827,0-1.408-0.383-1.678-1.094
			c-0.407-1.069,0.38-2.258,1.524-2.268c1.783-0.015,3.566-0.005,5.349-0.006c0.411,0,0.822-0.016,1.232,0.005
			c0.268,0.014,0.4-0.102,0.481-0.338c0.264-0.775,0.696-1.446,1.285-2.013c2.17-2.091,5.624-1.861,7.474,0.525
			c0.337,0.434,0.566,0.957,0.809,1.457c0.121,0.25,0.245,0.373,0.543,0.371c2.106-0.013,4.213-0.006,6.32-0.007
			c0.705,0,1.315,0.222,1.631,0.886c0.591,1.244-0.189,2.425-1.396,2.476c-0.113,0.005-0.227,0.005-0.341,0.005
			C32.213,16.298,28.359,16.298,24.504,16.298z M24.537,12.93c0.437,0,0.874,0,1.311,0c0.568,0,1.136,0.003,1.704-0.001
			c0.311-0.003,0.41-0.17,0.265-0.442c-0.078-0.146-0.158-0.293-0.254-0.427c-1.573-2.209-4.913-2.023-6.258,0.347
			c-0.203,0.357-0.11,0.522,0.297,0.522C22.58,12.931,23.558,12.93,24.537,12.93z"/>
	</g>
</g>
</svg>
