<svg xmlns="http://www.w3.org/2000/svg" width="85.11" height="85.11" viewBox="0 0 85.11 85.11">
  <defs>
    <style>
      .cls-1 {
        opacity: 0.995;
      }

      .cls-2 {
        fill: rgba(44,255,252,0.5);
      }

      .cls-3 {
        fill: #fff;
      }
    </style>
  </defs>
  <g id="Social_button" data-name="Social button" class="cls-1" transform="translate(-2855.973 -920.627)">
    <circle id="Ellipse_48" data-name="Ellipse 48" class="cls-2" cx="42.555" cy="42.555" r="42.555" transform="translate(2855.973 920.627)"/>
    <path id="add-group" class="cls-3" d="M29.272,33.634a18.747,18.747,0,0,0-3.938-2.1A10.05,10.05,0,0,0,28.6,24.9,14.862,14.862,0,0,1,47.448,23.36a1.974,1.974,0,1,0,2.259-3.238,18.767,18.767,0,0,0-3.939-2.1A10.069,10.069,0,1,0,32.211,18q-.414.159-.821.338a18.75,18.75,0,0,0-3.478,2,10.068,10.068,0,1,0-16.154,11.16A18.988,18.988,0,0,0,.292,43.306a5.924,5.924,0,0,0,5.639,7.738H23.108a1.974,1.974,0,0,0,0-3.949H5.931a1.975,1.975,0,0,1-1.88-2.58,15.234,15.234,0,0,1,14.473-10.3,14.768,14.768,0,0,1,8.489,2.662,1.974,1.974,0,1,0,2.259-3.238ZM39,4.449a6.121,6.121,0,1,1-6.121,6.121A6.127,6.127,0,0,1,39,4.449ZM18.567,17.961a6.121,6.121,0,1,1-6.121,6.121A6.128,6.128,0,0,1,18.567,17.961Z" transform="translate(2873.251 937.409)"/>
  </g>
</svg>
