<svg class="svglogo svglogo-sumo-white" preserveAspectRatio="xMinYMid" xmlns="http://www.w3.org/2000/svg" viewBox="0 0 190.1 64"><path fill="#fff" d="M0 0h64v64H0z"></path><path fill="#ffca05" d="M23.5 21.5L18 24.8h9.9l-4.4-3.3"></path><path fill="#f52612" d="M33.3 9.4a14.08 14.08 0 0 0-4.5.7 16.9 16.9 0 0 0-6.3 3.7 15.61 15.61 0 0 0-4.5 11l2.1-1.2 3.4-2a10 10 0 0 1 3.5-4.9 11.61 11.61 0 0 1 6.3-2.4z"></path><path fill="#0064d2" d="M47.7 46H31.8l-9.1 4.9h21l4 4.7V46"></path><path fill="#30b32b" d="M44 24.7a10.58 10.58 0 0 0-10.6-10.5V19a5.72 5.72 0 0 1 4.8 8.8 13.1 13.1 0 0 1-1.2 1.3l-7.2 5.5a42.72 42.72 0 0 0-8.8 8.9 25.83 25.83 0 0 0-2.8 5.3 23 23 0 0 0-1.5 6.5l6-4.5a16.53 16.53 0 0 1 3.6-6.3 33.45 33.45 0 0 1 7-6.4l1.2-.9q.45-.3 1.2-.9a56 56 0 0 0 4.5-3.5 10.46 10.46 0 0 0 3.8-8.1z"></path><path fill="#ffffff" d="M76 42.1l5.2-3.3a8.63 8.63 0 0 0 7.8 4.4c2.8 0 5.6-1 5.6-3.6 0-2.1-1.7-3-4-3.7l-5.4-1.4c-4.2-1.1-7.6-3.3-7.6-8.6 0-6 5.2-9.8 11.8-9.8 5.4 0 9 1.6 11.5 5.7l-5 3.2c-1.4-2.4-4-3.3-6.7-3.3-2.4 0-4.7 1-4.7 3.5 0 2 2 2.8 4.5 3.5l5.3 1.3c4.1 1 7.4 3.5 7.4 8.8 0 6.4-5.7 10-12.5 10-5.8 0-10.9-1.9-13.2-6.7zm28.9-1.5V25.2h6.4v13.4c0 2.9 1.2 4.8 4 4.8 2.6 0 4.2-1.7 4.2-5.3v-13h6.4v23.1h-6.2v-3h-.1a7.89 7.89 0 0 1-6.8 3.5c-4.7.1-7.9-2.8-7.9-8.1zm25.3-15.4h6.2v2.9h.1a8.16 8.16 0 0 1 6.8-3.4 7.2 7.2 0 0 1 6.6 3.5 8.78 8.78 0 0 1 7.3-3.5c4 0 7.8 2.3 7.8 7.7v15.8h-6.4V34.9c0-2.6-.9-4.8-3.9-4.8-2.6 0-4 2.1-4 5v13.3h-6.4V34.9c0-2.5-.7-4.9-3.8-4.9-1.8 0-4 1.3-4 4.8v13.4h-6.4v-23zm38.3 14.5v-5.1c0-6.5 5.4-9.8 10.7-9.8 5.6 0 10.9 3.3 10.9 9.7v4.8c0 6.5-5.6 9.7-10.7 9.7-5.6-.1-10.9-3-10.9-9.3zm15.1 0V34a4.07 4.07 0 0 0-4.4-4.1 3.88 3.88 0 0 0-4.2 4.2v5.7c0 2.5 1.8 4 4.4 4a3.9 3.9 0 0 0 4.2-4.1z"></path></svg>