<svg xmlns="http://www.w3.org/2000/svg" width="39.778" height="28.309" viewBox="0 0 39.778 28.309">
  <defs>
    <style>
      .cls-1 {
        fill: #fff;
      }
    </style>
  </defs>
  <path id="Path_29" data-name="Path 29" class="cls-1" d="M39.076,69.839a1.3,1.3,0,0,0-1.348.089l-5.964,4.182V68.921a2.856,2.856,0,0,0-2.852-2.852H2.852A2.855,2.855,0,0,0,0,68.921v22.6a2.856,2.856,0,0,0,2.852,2.852H28.912a2.856,2.856,0,0,0,2.852-2.852v-5.19l5.964,4.183a1.3,1.3,0,0,0,2.049-1.066V70.994A1.3,1.3,0,0,0,39.076,69.839ZM29.16,91.526h0a.249.249,0,0,1-.249.249H2.852a.249.249,0,0,1-.249-.249v-22.6a.249.249,0,0,1,.249-.249H28.912a.249.249,0,0,1,.249.249Zm8.013-4.576-5.41-3.794V77.291l5.41-3.794Z" transform="translate(0 -66.069)"/>
</svg>
