<svg xmlns="http://www.w3.org/2000/svg" xmlns:xlink="http://www.w3.org/1999/xlink" width="96" height="96" viewBox="0 0 96 96">
  <defs>
    <style>
      .cls-1 {
        fill: #1e2162;
      }

      .cls-2 {
        fill: #fff;
      }

      .cls-3 {
        fill: none;
      }

      .cls-4 {
        fill: url(#radial-gradient);
      }
    </style>
    <radialGradient id="radial-gradient" cx="0.983" cy="0.998" r="2.714" gradientTransform="translate(0.319) scale(0.362 1)" gradientUnits="objectBoundingBox">
      <stop offset="0.007" stop-color="#fff"/>
      <stop offset="0.03" stop-color="#cbffff"/>
      <stop offset="0.057" stop-color="#96ffff"/>
      <stop offset="0.084" stop-color="#68ffff"/>
      <stop offset="0.111" stop-color="#43ffff"/>
      <stop offset="0.138" stop-color="#25ffff"/>
      <stop offset="0.165" stop-color="#1ff"/>
      <stop offset="0.191" stop-color="#04ffff"/>
      <stop offset="0.216" stop-color="aqua"/>
      <stop offset="1" stop-color="blue" stop-opacity="0"/>
    </radialGradient>
  </defs>
  <g id="disney" transform="translate(-433.633 -234.175)">
    <circle id="Ellipse_4" data-name="Ellipse 4" class="cls-1" cx="48" cy="48" r="48" transform="translate(433.633 234.175)"/>
    <path id="path7" class="cls-2" d="M499.069,482.939a38.431,38.431,0,0,1-4.239.422l-.389,1.216a17.545,17.545,0,0,1,2.651-.016s.365-.041.405.413a7.011,7.011,0,0,1-.032.875s-.024.276-.413.34c-.421.073-3.307.178-3.307.178l-.47,1.581s-.17.365.219.259a27.022,27.022,0,0,1,3.785-.584,1.075,1.075,0,0,1,.754,1.183c-.162.632-3.177,2.561-5.017,2.424,0,0-.965.065-1.783-1.24-.762-1.24.292-3.6.292-3.6s-.478-1.1-.13-1.467a1.471,1.471,0,0,1,.811-.235l.738-1.532a1.729,1.729,0,0,1-1.346-.559c-.47-.592-.5-.859-.146-1.021a25.274,25.274,0,0,1,6.306-.746s.843-.081,1.564,1.378C499.313,482.209,499.669,482.8,499.069,482.939Zm-9.087,5.885a1.6,1.6,0,0,1-2.14,1.021c-1.005-.486-2.6-3.753-2.6-3.753s-.608-1.216-.721-1.192c0,0-.13-.235-.211,1.094s.016,3.915-.511,4.32a.941.941,0,0,1-1.427-.235c-.284-.47-.405-1.589-.251-3.55.186-1.962.64-4.053,1.224-4.709a.75.75,0,0,1,1.232-.008,14.251,14.251,0,0,1,2.067,2.78l.227.381a17.244,17.244,0,0,0,1.289,1.953s.1.089.178.024c.122-.032.073-.665.073-.665a38.069,38.069,0,0,0-1.305-5.747,1.672,1.672,0,0,1-.049-.875c.105-.43.535-.227.535-.227a5.671,5.671,0,0,1,2.448,3.518A9.891,9.891,0,0,1,489.983,488.823Zm-8.122-6.914a1.04,1.04,0,0,1-.916.778s-6.671.454-6.987.924c0,0-.235.276.13.357s1.872.276,2.6.316c.778.008,3.4.032,4.345,1.208a2.567,2.567,0,0,1,.535,1.824c-.024,1.3-.251,1.751-.754,2.221-.527.438-5.05,2.464-7.968-.648a1.65,1.65,0,0,1,.462-2.634s1.3-.786,4.62.138c0,0,1.005.365.956.729-.057.389-.827.8-1.945.778a3.7,3.7,0,0,1-1.727-.47c.146.057-1.167-.632-1.573-.162-.405.43-.308.7.089.965,1.013.576,4.928.373,6.1-.924,0,0,.462-.527-.243-.956a11.487,11.487,0,0,0-3.51-.689c-.754-.041-3.558.008-3.964-.738,0,0-.405-.5.041-1.929.47-1.491,3.737-2.067,5.147-2.2,0,0,3.883-.138,4.6.657a.609.609,0,0,1-.032.454Zm-11.024,8.746a1.512,1.512,0,0,1-1.751-.195c-.284-.349-.381-1.735-.324-3.907.057-2.2.105-4.92.576-5.35.5-.438.811-.057,1.005.243a2.263,2.263,0,0,1,.519,1.3c.049.689.211,4.3.211,4.3S471.283,490.315,470.837,490.655ZM471.85,479a4.089,4.089,0,0,1-3.1-.041c-.349.608-.551.794-.819.835-.389.041-.738-.584-.8-.786a1.11,1.11,0,0,1-.024-1.029,2.359,2.359,0,0,1-.705-2.27c.195-.729,1.508-3.5,5.5-3.826,0,0,1.953-.146,2.286.9h.057s1.9.008,1.856,1.694C476.073,476.17,473.99,478.278,471.85,479Zm-3.729-3.753c-.405.648-.421,1.038-.235,1.305a9.6,9.6,0,0,1,2.545-2.659A2.891,2.891,0,0,0,468.122,475.246Zm5.52-1.086c-1.256.186-3.2,1.872-4.126,3.25,1.418.259,3.923.162,5.034-2.1-.008,0,.527-1.4-.908-1.151Zm34.109,13.058c-.754,1.313-2.869,4.053-5.69,3.413a29.254,29.254,0,0,0-2.156,7.96s-.1.665-.648.43a3.119,3.119,0,0,1-1.629-2.359c-.195-1.654.543-4.45,2.043-7.652a4.394,4.394,0,0,1-.478-3.186,9.388,9.388,0,0,1,3.08-5.123s.324-.284.511-.195c.211.089.113.965-.057,1.386s-1.378,2.513-1.378,2.513a4.676,4.676,0,0,0-.543,2.521c1.419-2.18,4.645-6.582,6.647-5.2a3.243,3.243,0,0,1,.981,2.651A6.161,6.161,0,0,1,507.751,487.218Zm-.584-3.453s-.113-.867-.956.089a20.659,20.659,0,0,0-3.1,4.369,5.1,5.1,0,0,0,2.5-1.038,4.181,4.181,0,0,0,1.556-3.421Zm-39.353,1.1c-.154,1.962-.908,5.261-6.25,6.89a16.573,16.573,0,0,1-8.673.089c-.041.721-.122,1.029-.235,1.151-.154.154-1.305.819-1.937-.122a5.263,5.263,0,0,1-.511-1.978,15.251,15.251,0,0,1-6.039-4.709,1.643,1.643,0,0,1-.089-2.253c.875-1.078,3.737-2.156,6.314-2.594a16.587,16.587,0,0,1,.657-4.628c.373-.884.843-.089,1.248.511a10.561,10.561,0,0,1,.559,3.9,17.361,17.361,0,0,1,4.564.381c2.448.446,4.085,1.694,3.939,3.113a2.253,2.253,0,0,1-1.872,2.01,3.473,3.473,0,0,1-1.3-.324c-.543-.259-.041-.486.616-.77.713-.349.551-.705.551-.705-.267-.778-3.445-1.321-6.606-1.321-.016,1.743.073,4.636.113,6.322a18.132,18.132,0,0,0,3.866.34s8.073-.227,8.316-5.382-8.049-10.116-14.185-11.688c-6.128-1.6-9.6-.486-9.9-.332-.324.162-.024.211-.024.211a5.8,5.8,0,0,1,.908.243c.608.195.138.511.138.511-1.046.332-2.221.122-2.448-.357s.154-.908.592-1.524c.438-.648.916-.624.916-.624,7.579-2.626,16.811,2.124,16.811,2.124,8.649,4.385,10.124,9.524,9.962,11.518Zm-22.874-.268c-.859.422-.267,1.029-.267,1.029a13.691,13.691,0,0,0,5.488,3.494c.219-2.991.186-4.045.211-5.552A16.947,16.947,0,0,0,444.939,484.6Z" transform="translate(0 -194.021)"/>
    <path id="path13" class="cls-2" d="M1333.88,569.966v1.07a.419.419,0,0,1-.421.421h-5.1c0,.268.008.5.008.721a38.928,38.928,0,0,1-.219,4.32.421.421,0,0,1-.413.381h-1.1a.392.392,0,0,1-.292-.13.384.384,0,0,1-.1-.308,38.162,38.162,0,0,0,.227-4.264c0-.227,0-.462-.008-.721h-5.042a.419.419,0,0,1-.422-.422v-1.07a.419.419,0,0,1,.422-.422h4.969a37.329,37.329,0,0,0-.656-5.123.373.373,0,0,1,.073-.292.342.342,0,0,1,.267-.13h1.192a.389.389,0,0,1,.381.316,41.124,41.124,0,0,1,.649,5.228h5.163a.429.429,0,0,1,.421.422Z" transform="translate(-810.08 -280.002)"/>
    <path id="path21" class="cls-3" d="M637.638,463.3h-.008m-.057.008c-.024,0-.049-.008-.073-.008a.224.224,0,0,0,.073.008h0Zm0,0c-.024,0-.049-.008-.073-.008a.224.224,0,0,0,.073.008h0Z" transform="translate(-181.983 -187.465)"/>
    <path id="path44" class="cls-4" d="M684.171,281.477a35.578,35.578,0,0,0-62.568-6.323.415.415,0,0,0-.049.365.4.4,0,0,0,.259.259l.924.316a.606.606,0,0,0,.162.024.534.534,0,0,0,.43-.227A33.681,33.681,0,0,1,651.2,261.124,33.726,33.726,0,0,1,682.258,281.7a.486.486,0,0,0,.446.3h1.1a.371.371,0,0,0,.316-.17A.355.355,0,0,0,684.171,281.477ZM622.9,275.844a.237.237,0,0,1-.073-.016A.237.237,0,0,0,622.9,275.844Zm59.577,6.014a.33.33,0,0,0,.073.041C682.525,281.883,682.5,281.875,682.477,281.858Z" transform="translate(-167.309)"/>
  </g>
</svg>
