<svg xmlns="http://www.w3.org/2000/svg" xmlns:xlink="http://www.w3.org/1999/xlink" width="148.681" height="80.659" viewBox="0 0 148.681 80.659">
  <defs>
    <style>
      .cls-1 {
        fill: #fff;
      }

      .cls-2 {
        fill: none;
      }

      .cls-3 {
        fill: url(#radial-gradient);
      }
    </style>
    <radialGradient id="radial-gradient" cx="0.983" cy="0.998" r="2.714" gradientTransform="matrix(0.362, 0, 0, -1, -0.125, 0.921)" gradientUnits="objectBoundingBox">
      <stop offset="0.01" stop-color="#fff"/>
      <stop offset="0.03" stop-color="#cbffff"/>
      <stop offset="0.06" stop-color="#96ffff"/>
      <stop offset="0.08" stop-color="#68ffff"/>
      <stop offset="0.11" stop-color="#43ffff"/>
      <stop offset="0.14" stop-color="#25ffff"/>
      <stop offset="0.16" stop-color="#1ff"/>
      <stop offset="0.19" stop-color="#04ffff"/>
      <stop offset="0.22" stop-color="aqua"/>
      <stop offset="1" stop-color="blue" stop-opacity="0"/>
    </radialGradient>
  </defs>
  <g id="Disney_plus_logo" data-name="Disney plus logo" transform="translate(-31.075 -7.327)">
    <path id="path27" class="cls-1" d="M136.157,32.8a67.738,67.738,0,0,1-7.474.743L128,35.689a30.926,30.926,0,0,1,4.673-.029s.643-.071.715.729a12.345,12.345,0,0,1-.057,1.543s-.043.486-.729.6c-.743.129-5.83.314-5.83.314l-.829,2.787s-.3.643.386.457A47.638,47.638,0,0,1,133,41.062a1.9,1.9,0,0,1,1.329,2.086c-.286,1.115-5.6,4.516-8.846,4.273,0,0-1.7.114-3.144-2.186-1.343-2.186.514-6.345.514-6.345s-.843-1.943-.229-2.587a2.592,2.592,0,0,1,1.429-.414l1.3-2.7a3.047,3.047,0,0,1-2.372-.986c-.829-1.043-.886-1.515-.257-1.8a44.56,44.56,0,0,1,11.118-1.315s1.486-.143,2.758,2.429c-.014,0,.615,1.043-.443,1.286ZM120.138,43.177c-.543,1.286-1.986,2.658-3.773,1.8s-4.587-6.616-4.587-6.616-1.072-2.144-1.272-2.1c0,0-.229-.414-.372,1.929s.029,6.9-.9,7.617a1.66,1.66,0,0,1-2.515-.414c-.5-.829-.715-2.8-.443-6.259.329-3.458,1.129-7.145,2.158-8.3a1.316,1.316,0,0,1,2.172-.014,25.122,25.122,0,0,1,3.644,4.9l.4.672a30.4,30.4,0,0,0,2.272,3.444s.171.157.314.043c.214-.057.129-1.172.129-1.172a67.1,67.1,0,0,0-2.3-10.132,2.948,2.948,0,0,1-.086-1.543c.2-.743.943-.4.943-.4s2.915,1.458,4.316,6.2a17.438,17.438,0,0,1-.1,10.346Zm-14.319-12.19a1.833,1.833,0,0,1-1.615,1.372s-11.761.8-12.318,1.629c0,0-.414.486.229.629s3.3.486,4.587.557c1.372.014,6,.057,7.66,2.129a4.525,4.525,0,0,1,.943,3.215c-.043,2.286-.443,3.087-1.329,3.916-.929.772-8.9,4.344-14.047-1.143a2.908,2.908,0,0,1,.815-4.644s2.3-1.386,8.145.243c0,0,1.772.643,1.686,1.286-.1.686-1.458,1.415-3.43,1.372a6.521,6.521,0,0,1-3.044-.829c.257.1-2.058-1.115-2.772-.286-.714.757-.543,1.229.157,1.7,1.786,1.015,8.689.657,10.746-1.629,0,0,.815-.929-.429-1.686C100.56,38.1,97,37.675,95.615,37.6c-1.329-.071-6.273.014-6.988-1.3,0,0-.714-.886.071-3.4.829-2.629,6.588-3.644,9.074-3.873,0,0,6.845-.243,8.1,1.158a1.074,1.074,0,0,1-.057.8ZM86.384,46.406a2.665,2.665,0,0,1-3.087-.343c-.5-.614-.672-3.058-.572-6.888.1-3.873.186-8.674,1.015-9.432.886-.772,1.429-.1,1.772.429a3.989,3.989,0,0,1,.915,2.3c.1,1.215.371,7.588.371,7.588s.372,5.745-.414,6.345ZM88.17,25.857a7.208,7.208,0,0,1-5.473-.071c-.615,1.072-.972,1.4-1.443,1.472-.686.071-1.3-1.029-1.415-1.386a1.956,1.956,0,0,1-.043-1.815,4.159,4.159,0,0,1-1.243-4c.343-1.286,2.658-6.173,9.7-6.745,0,0,3.444-.257,4.03,1.586h.1s3.344.014,3.273,2.987C95.615,20.87,91.943,24.585,88.17,25.857ZM81.6,19.24c-.714,1.143-.743,1.829-.414,2.3a16.925,16.925,0,0,1,4.487-4.687A5.1,5.1,0,0,0,81.6,19.24Zm9.732-1.915c-2.215.329-5.645,3.3-7.274,5.73,2.5.457,6.917.286,8.874-3.7-.014,0,.929-2.472-1.6-2.029Zm60.134,23.022c-1.329,2.315-5.059,7.145-10.032,6.016a51.576,51.576,0,0,0-3.8,14.033s-.172,1.172-1.143.757A5.5,5.5,0,0,1,133.613,57c-.343-2.915.957-7.845,3.6-13.49a7.746,7.746,0,0,1-.843-5.616,16.551,16.551,0,0,1,5.43-9.031s.572-.5.9-.343c.371.157.2,1.7-.1,2.444s-2.429,4.43-2.429,4.43-1.329,2.487-.957,4.444c2.5-3.844,8.188-11.6,11.718-9.16,1.186.843,1.729,2.687,1.729,4.673a10.862,10.862,0,0,1-1.2,5Zm-1.029-6.088s-.2-1.529-1.686.157a36.421,36.421,0,0,0-5.473,7.7,9,9,0,0,0,4.416-1.829C148.618,39.461,150.776,37.232,150.433,34.26ZM81.054,36.2c-.272,3.458-1.6,9.274-11.018,12.147a29.219,29.219,0,0,1-15.291.157c-.071,1.272-.214,1.815-.414,2.029-.271.272-2.3,1.443-3.415-.214a9.279,9.279,0,0,1-.9-3.487,26.887,26.887,0,0,1-10.646-8.3,2.9,2.9,0,0,1-.157-3.973c1.543-1.9,6.588-3.8,11.132-4.573a29.237,29.237,0,0,1,1.158-8.16c.657-1.558,1.486-.157,2.2.9.6.786.957,4.173.986,6.874a30.606,30.606,0,0,1,8.045.672c4.316.786,7.2,2.987,6.945,5.487a3.971,3.971,0,0,1-3.3,3.544,6.123,6.123,0,0,1-2.3-.572c-.957-.457-.071-.857,1.086-1.358,1.258-.614.972-1.243.972-1.243C65.663,34.76,60.061,33.8,54.488,33.8c-.029,3.072.129,8.174.2,11.146a31.966,31.966,0,0,0,6.816.6s14.233-.4,14.662-9.489S61.976,18.226,51.158,15.454c-10.8-2.829-16.92-.857-17.448-.586-.572.286-.043.372-.043.372a10.213,10.213,0,0,1,1.6.429c1.072.343.243.9.243.9-1.843.586-3.916.214-4.316-.629s.272-1.6,1.043-2.687c.772-1.143,1.615-1.1,1.615-1.1C47.214,7.522,63.491,15.9,63.491,15.9,78.739,23.628,81.339,32.688,81.054,36.2Zm-40.327-.472c-1.515.743-.472,1.815-.472,1.815a24.137,24.137,0,0,0,9.675,6.159c.386-5.273.329-7.131.372-9.789-5.2.357-8.2,1.186-9.574,1.815Z" transform="translate(0 26.743)"/>
    <path id="path29" class="cls-1" d="M68.1,22.794v1.886a.737.737,0,0,1-.743.743H58.37c0,.472.014.886.014,1.272A68.6,68.6,0,0,1,58,34.312a.742.742,0,0,1-.729.672H55.327a.692.692,0,0,1-.514-.229.679.679,0,0,1-.172-.543,67.264,67.264,0,0,0,.4-7.517c0-.4,0-.815-.014-1.272H46.138a.737.737,0,0,1-.743-.743V22.794a.737.737,0,0,1,.743-.743H54.9A65.854,65.854,0,0,0,53.74,13.02a.657.657,0,0,1,.129-.514.6.6,0,0,1,.472-.229h2.1a.687.687,0,0,1,.672.557,72.488,72.488,0,0,1,1.143,9.217h9.1a.756.756,0,0,1,.743.743Z" transform="translate(111.655 38.594)"/>
    <path id="path31" class="cls-2" d="M34.535,10.641h-.014m-.1.014c-.043,0-.086-.014-.129-.014A.4.4,0,0,0,34.421,10.655Zm0,0c-.043,0-.086-.014-.129-.014A.4.4,0,0,0,34.421,10.655Z" transform="translate(25.083 25.839)"/>
    <path id="path33" class="cls-3" d="M144.464,46.427A62.723,62.723,0,0,0,34.157,35.28a.732.732,0,0,0-.086.643.7.7,0,0,0,.457.457l1.629.557a1.067,1.067,0,0,0,.286.043.942.942,0,0,0,.757-.4A59.423,59.423,0,0,1,141.088,46.817a.857.857,0,0,0,.79.538h1.943a.655.655,0,0,0,.557-.3A.626.626,0,0,0,144.464,46.427ZM36.444,36.495a.418.418,0,0,1-.129-.029A.418.418,0,0,0,36.444,36.495ZM141.477,47.1a.579.579,0,0,0,.129.071C141.563,47.141,141.52,47.127,141.477,47.1Z" transform="translate(23.06 0)"/>
  </g>
</svg>
