<svg xmlns="http://www.w3.org/2000/svg" width="75.625" height="75.625" viewBox="0 0 75.625 75.625">
  <defs>
    <style>
      .cls-1 {
        fill: #fff;
      }
    </style>
  </defs>
  <g id="hbo" transform="translate(-3.151 -3.152)">
    <ellipse id="Ellipse_49" data-name="Ellipse 49" class="cls-1" cx="37.813" cy="37.813" rx="37.813" ry="37.813" transform="translate(3.152 3.152)"/>
    <path id="hbo-logo_logotyp.us" data-name="hbo-logo@logotyp.us" d="M56.247,75.928a4.965,4.965,0,1,1-4.965-4.965A4.955,4.955,0,0,1,56.247,75.928ZM14.691,72.949H10.444V63.843H3.767V87.982h6.661V79.045h4.247v8.938h6.661V63.843H14.691Zm48.935,2.979A12.344,12.344,0,0,1,39.777,80.4c.015.153.015.321.015.489,0,7.379-6.386,7.089-6.386,7.089H22.773V63.843H32.994c1.849,0,7.089,1.008,7.089,6.172,0,.275-.015.535-.031.779a12.346,12.346,0,0,1,23.574,5.133ZM33.7,80.313a1.493,1.493,0,0,0-1.421-1.7H28.731V82.3h3.544S33.7,82.162,33.7,80.313Zm0-8.846c0-1.742-1.421-1.726-1.421-1.726H28.731v3.636h3.544a1.74,1.74,0,0,0,1.421-1.91Zm5.393,6.386a13.269,13.269,0,0,1-.153-1.925,12.653,12.653,0,0,1,.138-1.879,3.864,3.864,0,0,1-2.536,1.635c-.84.153,1.36.076,2.551,2.169Zm18.288-1.925a6.1,6.1,0,1,0-6.1,6.1A6.1,6.1,0,0,0,57.377,75.928Z" transform="translate(8.05 -33.648)"/>
  </g>
</svg>
