<svg xmlns="http://www.w3.org/2000/svg" xmlns:xlink="http://www.w3.org/1999/xlink" width="81.928" height="81.928" viewBox="0 0 81.928 81.928">
  <defs>
    <style>
      .cls-1 {
        fill: #141414;
      }

      .cls-2 {
        fill: #b1060f;
      }

      .cls-3 {
        fill: url(#radial-gradient);
      }

      .cls-4 {
        fill: #e50914;
      }
    </style>
    <radialGradient id="radial-gradient" cx="0.483" cy="0.494" r="0.036" gradientTransform="matrix(1.716, -0.327, -21.762, -34.615, -23.759, 26.83)" gradientUnits="objectBoundingBox">
      <stop offset="0"/>
      <stop offset="1" stop-opacity="0"/>
    </radialGradient>
  </defs>
  <g id="Netflix_sub" transform="translate(-14834.524 -2691.43)">
    <ellipse id="Ellipse_49" data-name="Ellipse 49" class="cls-1" cx="37.813" cy="37.813" rx="37.813" ry="37.813" transform="matrix(0.996, 0.087, -0.087, 0.996, 14841.115, 2691.43)"/>
    <path id="path4155" class="cls-2" d="M-22.487-119.872l-.02,11.274-.02,11.274-.926-2.617v-.007l-1.2,25.1c1.181,3.329,1.812,5.107,1.819,5.114s.678.047,1.49.087c2.456.121,5.5.383,7.818.671A5.3,5.3,0,0,0-12.5-68.9c.034-.027.04-11.5.034-25.507l-.02-25.46Z" transform="translate(14902.007 2826.798)"/>
    <path id="path4157" class="cls-2" d="M-93.618-120.04v25.487c0,14.019.013,25.5.034,25.521s.886-.067,1.933-.181,2.49-.262,3.208-.322c1.1-.094,4.4-.3,4.778-.309.114,0,.121-.57.134-10.8l.02-10.8.8,2.255c.121.349.161.456.282.8l1.2-25.091c-.255-.718-.121-.342-.409-1.161-.98-2.772-1.812-5.114-1.845-5.221l-.067-.188H-93.618Z" transform="translate(14955.053 2826.932)"/>
    <path id="path5715" class="cls-2" d="M-22.487-119.872l-.02,11.274-.02,11.274-.926-2.617v-.007l-1.2,25.1c1.181,3.329,1.812,5.107,1.819,5.114s.678.047,1.49.087c2.456.121,5.5.383,7.818.671A5.3,5.3,0,0,0-12.5-68.9c.034-.027.04-11.5.034-25.507l-.02-25.46Z" transform="translate(14902.007 2826.798)"/>
    <path id="path5717" class="cls-2" d="M-93.618-120.04v25.487c0,14.019.013,25.5.034,25.521s.886-.067,1.933-.181,2.49-.262,3.208-.322c1.1-.094,4.4-.3,4.778-.309.114,0,.121-.57.134-10.8l.02-10.8.8,2.255c.121.349.161.456.282.8l1.2-25.091c-.255-.718-.121-.342-.409-1.161-.98-2.772-1.812-5.114-1.845-5.221l-.067-.188H-93.618Z" transform="translate(14955.053 2826.932)"/>
    <path id="path5719" class="cls-3" d="M-93.618-120.04v14.307L-83.539-79c0-.611,0-.946.007-1.644l.02-10.8.8,2.255c4.429,12.562,6.811,19.3,6.825,19.313s.678.047,1.49.087c2.456.121,5.5.383,7.818.671a5.3,5.3,0,0,0,1.027.074c.02-.02.034-5.644.034-13.582l-10.026-28.843-.007,2.731-.02,11.274-.926-2.617c-.906-2.557-1.51-4.268-5.154-14.562-.98-2.772-1.812-5.114-1.845-5.221l-.067-.188H-93.618v.007Z" transform="translate(14955.053 2826.932)"/>
    <path id="path5721" class="cls-4" d="M-93.618-120.04l10.1,28.621v-.013l.8,2.255c4.436,12.556,6.818,19.293,6.831,19.307s.678.047,1.49.087c2.456.121,5.5.383,7.818.671a5.245,5.245,0,0,0,1.02.074L-75.573-97.465v.007l-.926-2.617c-.906-2.557-1.51-4.268-5.154-14.562-.98-2.772-1.812-5.114-1.845-5.221l-.067-.188h-5.026l-5.026.007Z" transform="translate(14955.053 2826.932)"/>
  </g>
</svg>
