<?xml version="1.0" encoding="utf-8"?>
<!-- Generator: Adobe Illustrator 25.2.1, SVG Export Plug-In . SVG Version: 6.00 Build 0)  -->
<svg version="1.1" id="Layer_1" xmlns="http://www.w3.org/2000/svg" xmlns:xlink="http://www.w3.org/1999/xlink" x="0px" y="0px"
	 viewBox="0 0 81.9 81.9" style="enable-background:new 0 0 81.9 81.9;" xml:space="preserve">
<style type="text/css">
	.st0{fill:#141414;}
	.st1{fill:#B1060F;}
	.st2{fill:url(#path5719_1_);}
	.st3{fill:#E50914;}
</style>
<g id="Netflix_sub" transform="translate(-14834.524 -2691.43)">
	<ellipse id="Ellipse_49" class="st0" cx="14875.5" cy="2732.4" rx="41" ry="41"/>
	<path id="path4155" class="st1" d="M14879.9,2704.8l0,12.2l0,12.2l-1-2.8v0l-1.3,27.2c1.3,3.6,2,5.5,2,5.5s0.7,0.1,1.6,0.1
		c2.7,0.1,6,0.4,8.5,0.7c0.4,0.1,0.7,0.1,1.1,0.1c0,0,0-12.5,0-27.6l0-27.6L14879.9,2704.8z"/>
	<path id="path4157" class="st1" d="M14860.3,2704.8v27.6c0,15.2,0,27.6,0,27.7s1-0.1,2.1-0.2c1.1-0.1,2.7-0.3,3.5-0.3
		c1.2-0.1,4.8-0.3,5.2-0.3c0.1,0,0.1-0.6,0.1-11.7l0-11.7l0.9,2.4c0.1,0.4,0.2,0.5,0.3,0.9l1.3-27.2c-0.3-0.8-0.1-0.4-0.4-1.3
		c-1.1-3-2-5.5-2-5.7l-0.1-0.2L14860.3,2704.8L14860.3,2704.8z"/>
	<path id="path5715" class="st1" d="M14879.9,2704.8l0,12.2l0,12.2l-1-2.8v0l-1.3,27.2c1.3,3.6,2,5.5,2,5.5s0.7,0.1,1.6,0.1
		c2.7,0.1,6,0.4,8.5,0.7c0.4,0.1,0.7,0.1,1.1,0.1c0,0,0-12.5,0-27.6l0-27.6L14879.9,2704.8z"/>
	<path id="path5717" class="st1" d="M14860.3,2704.8v27.6c0,15.2,0,27.6,0,27.7s1-0.1,2.1-0.2c1.1-0.1,2.7-0.3,3.5-0.3
		c1.2-0.1,4.8-0.3,5.2-0.3c0.1,0,0.1-0.6,0.1-11.7l0-11.7l0.9,2.4c0.1,0.4,0.2,0.5,0.3,0.9l1.3-27.2c-0.3-0.8-0.1-0.4-0.4-1.3
		c-1.1-3-2-5.5-2-5.7l-0.1-0.2L14860.3,2704.8L14860.3,2704.8z"/>
	
		<radialGradient id="path5719_1_" cx="14201.9512" cy="3117.2266" r="3.900678e-02" gradientTransform="matrix(48.2196 -16.6802 611.512 1765.7008 -2577198.75 -5263964.5)" gradientUnits="userSpaceOnUse">
		<stop  offset="0" style="stop-color:#000000"/>
		<stop  offset="1" style="stop-color:#000000;stop-opacity:0"/>
	</radialGradient>
	<path id="path5719" class="st2" d="M14860.3,2704.8v15.5l10.9,29c0-0.7,0-1,0-1.8l0-11.7l0.9,2.4c4.8,13.6,7.4,20.9,7.4,20.9
		c0,0,0.7,0.1,1.6,0.1c2.7,0.1,6,0.4,8.5,0.7c0.4,0.1,0.7,0.1,1.1,0.1c0,0,0-6.1,0-14.7l-10.9-31.3l0,3l0,12.2l-1-2.8
		c-1-2.8-1.6-4.6-5.6-15.8c-1.1-3-2-5.5-2-5.7l-0.1-0.2L14860.3,2704.8L14860.3,2704.8L14860.3,2704.8z"/>
	<path id="path5721" class="st3" d="M14860.3,2704.8l10.9,31v0l0.9,2.4c4.8,13.6,7.4,20.9,7.4,20.9c0,0,0.7,0.1,1.6,0.1
		c2.7,0.1,6,0.4,8.5,0.7c0.4,0.1,0.7,0.1,1.1,0.1l-10.9-30.8v0l-1-2.8c-1-2.8-1.6-4.6-5.6-15.8c-1.1-3-2-5.5-2-5.7l-0.1-0.2h-5.4
		L14860.3,2704.8L14860.3,2704.8z"/>
</g>
</svg>
