<svg xmlns="http://www.w3.org/2000/svg" width="76" height="76" viewBox="0 0 76 76">
  <defs>
    <style>
      .cls-1 {
        fill: #4c4a4a;
      }

      .cls-2, .cls-3 {
        fill: #fff;
      }

      .cls-3 {
        fill-rule: evenodd;
      }
    </style>
  </defs>
  <g id="Norsk-rikskringkasting-Logo" transform="translate(5.907 26.55)">
    <circle id="Ellipse_95" data-name="Ellipse 95" class="cls-1" cx="38" cy="38" r="38" transform="translate(-5.907 -26.55)"/>
    <rect id="Rectangle_2" data-name="Rectangle 2" class="cls-2" width="7.948" height="22.428" transform="translate(0 0.472)"/>
    <rect id="Rectangle_3" data-name="Rectangle 3" class="cls-2" width="7.88" height="22.428" transform="translate(22.495 0.472)"/>
    <rect id="Rectangle_4" data-name="Rectangle 4" class="cls-2" width="7.88" height="22.428" transform="translate(40.276 0.472)"/>
    <path id="Path_1" data-name="Path 1" class="cls-3" d="M291.475,0A4.486,4.486,0,0,0,287.1,4.513a4.392,4.392,0,0,0,4.378,4.445c5.96-.185,5.942-8.666,0-8.958" transform="translate(-256.183)"/>
    <path id="Path_2" data-name="Path 2" class="cls-3" d="M465,16.644a1.843,1.843,0,0,1,.2-2.357c.563-1.044,1.26-2.06,1.887-3.1.771-1.365,1.693-2.867,2.559-4.176.3-.525.682-1.081.943-1.616l.2-.27.068-.2.134-.2.136-.135.066-.135V4.387h-8.621l-.067.067-.135.269-.135.135-.135.269-.134.2-.136.269-.2.27c-.737,1.277-1.528,2.454-2.289,3.7-.785,1.678-2.835,4.129-3.234,5.859-.171,1.194,2.581,4.867,3.166,5.994.686,1.1,1.447,2.48,2.155,3.5.132.474.517.752.808,1.346l.135.2.135.27.067.068H471.2L465,16.644" transform="translate(-407.013 -3.915)"/>
    <path id="Path_3" data-name="Path 3" class="cls-3" d="M87.023,6.9c-.887-4.563-5.905-3.77-9.429-3.637l5.119,22.428h8.554L87.023,6.9" transform="translate(-69.242 -2.787)"/>
  </g>
</svg>
