<svg id="logo-tv2" xmlns="http://www.w3.org/2000/svg" width="75.979" height="75.979" viewBox="0 0 75.979 75.979">
  <defs>
    <style>
      .cls-1 {
        fill: #f7f7f7;
      }

      .cls-2 {
        fill: #ffca05;
      }

      .cls-3 {
        fill: #f52612;
      }

      .cls-4 {
        fill: #0064d2;
      }

      .cls-5 {
        fill: #30b32b;
      }
    </style>
  </defs>
  <path id="Path_5" data-name="Path 5" class="cls-1" d="M37.99,0A37.99,37.99,0,1,1,0,37.99,37.99,37.99,0,0,1,37.99,0Z"/>
  <path id="Path_663" data-name="Path 663" class="cls-2" d="M25.093,21.5,18,25.756H30.767L25.093,21.5" transform="translate(1.677 2.304)"/>
  <path id="Path_664" data-name="Path 664" class="cls-3" d="M37.732,9.4a18.172,18.172,0,0,0-5.8.9A21.786,21.786,0,0,0,23.8,15.075,20.13,20.13,0,0,0,18,29.261l2.708-1.548,4.385-2.579a12.9,12.9,0,0,1,4.514-6.319,14.964,14.964,0,0,1,8.125-3.1Z" transform="translate(1.677 -1.201)"/>
  <path id="Path_665" data-name="Path 665" class="cls-4" d="M54.941,46H34.436L22.7,52.319H49.782l5.159,6.061V46" transform="translate(3.038 9.4)"/>
  <path id="Path_666" data-name="Path 666" class="cls-5" d="M51.907,27.741A13.644,13.644,0,0,0,38.237,14.2v6.19a7.377,7.377,0,0,1,6.19,11.349,16.843,16.843,0,0,1-1.548,1.677l-9.285,7.093A55.092,55.092,0,0,0,22.245,51.987a33.282,33.282,0,0,0-3.611,6.835A29.649,29.649,0,0,0,16.7,67.2l7.738-5.8a21.314,21.314,0,0,1,4.643-8.125,43.169,43.169,0,0,1,9.027-8.254l1.548-1.161q.58-.387,1.548-1.161a72.651,72.651,0,0,0,5.8-4.514A13.49,13.49,0,0,0,51.907,27.741Z" transform="translate(1.3 0.189)"/>
</svg>
